<?xml version="1.0" encoding="UTF-8"?>
<!DOCTYPE svg PUBLIC "-//W3C//DTD SVG 1.1//EN" "http://www.w3.org/Graphics/SVG/1.1/DTD/svg11.dtd">
<svg xmlns="http://www.w3.org/2000/svg" version="1.1" width="1520px" height="1520px" style="shape-rendering:geometricPrecision; text-rendering:geometricPrecision; image-rendering:optimizeQuality; fill-rule:evenodd; clip-rule:evenodd" xmlns:xlink="http://www.w3.org/1999/xlink">
<g><path style="opacity:0.999" fill="#ffb8c6" d="M 564.5,-0.5 C 587.833,-0.5 611.167,-0.5 634.5,-0.5C 808.551,13.1045 951.718,86.1045 1064,218.5C 1126.3,295.094 1167.47,382.094 1187.5,479.5C 1032.17,479.333 876.833,479.5 721.5,480C 624.842,490.048 553.342,537.548 507,622.5C 491.838,653.823 482.838,686.823 480,721.5C 479.5,876.833 479.333,1032.17 479.5,1187.5C 310.781,1150.51 180.281,1059.51 88,914.5C 35.8823,828.314 6.38228,734.98 -0.5,634.5C -0.5,611.167 -0.5,587.833 -0.5,564.5C 14.9401,375.733 97.9401,224.9 248.5,112C 343.153,45.0562 448.487,7.55618 564.5,-0.5 Z"/></g>
<g><path style="opacity:1" fill="#fcfeb8" d="M 1187.5,479.5 C 1219.31,649.907 1186.14,806.24 1088,948.5C 983.128,1090.4 842.628,1172.9 666.5,1196C 603.658,1202.95 541.325,1200.12 479.5,1187.5C 479.333,1032.17 479.5,876.833 480,721.5C 482.838,686.823 491.838,653.823 507,622.5C 553.342,537.548 624.842,490.048 721.5,480C 876.833,479.5 1032.17,479.333 1187.5,479.5 Z"/></g>
<g><path style="opacity:1" fill="#64c3f5" d="M 1187.5,479.5 C 1219.17,479.333 1250.84,479.5 1282.5,480C 1371.96,490.44 1439.79,533.94 1486,610.5C 1504.35,643.699 1515.51,679.032 1519.5,716.5C 1519.5,905.167 1519.5,1093.83 1519.5,1282.5C 1506.69,1382.45 1455.02,1454.28 1364.5,1498C 1338.11,1509.26 1310.78,1516.43 1282.5,1519.5C 1093.83,1519.5 905.167,1519.5 716.5,1519.5C 616.551,1506.69 544.718,1455.02 501,1364.5C 489.617,1338.3 482.617,1310.97 480,1282.5C 479.5,1250.84 479.333,1219.17 479.5,1187.5C 541.325,1200.12 603.658,1202.95 666.5,1196C 842.628,1172.9 983.128,1090.4 1088,948.5C 1186.14,806.24 1219.31,649.907 1187.5,479.5 Z"/></g>
</svg>
